# xmcd
#
# Track frame offsets:
#	150
#	28537
#	51196
#	78506
#	97458
#	114708
#	133852
#	159138
#	183475
#
# Disc length: 2807 seconds
#
# Revision: 0
# Processed by: cddbd v1.5.2PL0 Copyright (c) Steve Scherf et al.
# Submitted via: dBpowerAMP V4.0
#
DISCID=780af509
DTITLE=The Floorboards - The Floorboards
DYEAR=2012
DGENRE=Alt. Country
TTITLE0=Devil's Cadillac
TTITLE1=Woman Named Whiskey
TTITLE2=Pistol and a Bottle
TTITLE3=Tobacco
TTITLE4=Muscadine Wine
TTITLE5=Cecelia
TTITLE6=Pining and Reeling
TTITLE7=Rhododendron Ridge
TTITLE8=Wine and Wheels
EXTD=
EXTT0=
EXTT1=
EXTT2=
EXTT3=
EXTT4=
EXTT5=
EXTT6=
EXTT7=
EXTT8=
PLAYORDER=
